<?xml version="1.0" standalone="no"?>
<!DOCTYPE svg PUBLIC "-//W3C//DTD SVG 20010904//EN"
 "http://www.w3.org/TR/2001/REC-SVG-20010904/DTD/svg10.dtd">
<svg version="1.0" xmlns="http://www.w3.org/2000/svg"
 width="200.000000pt" height="114.000000pt" viewBox="0 0 200.000000 114.000000"
 preserveAspectRatio="xMidYMid meet">

<g transform="translate(0.000000,114.000000) scale(0.100000,-0.100000)"
fill="#000000" stroke="none">
<path d="M92 671 c3 -133 4 -140 33 -187 34 -54 93 -99 143 -109 l32 -7 0 119
c0 149 16 209 70 263 l39 39 -37 11 c-20 5 -93 10 -161 10 l-123 0 4 -139z"/>
<path d="M837 682 c-13 -15 -17 -39 -17 -110 0 -103 17 -127 22 -30 3 57 5 63
28 69 l25 7 -27 1 c-24 1 -28 5 -28 31 0 17 7 33 18 39 9 6 12 11 6 11 -6 0
-18 -8 -27 -18z"/>
<path d="M1300 588 c0 -61 3 -108 7 -104 12 11 15 216 3 216 -6 0 -10 -43 -10
-112z"/>
<path d="M1509 695 c-4 -5 -7 -54 -8 -107 -2 -91 -1 -97 18 -95 15 1 17 5 10
13 -6 7 -9 30 -7 51 2 31 7 39 26 41 31 5 52 -15 52 -47 0 -31 -8 -44 -35 -59
-17 -9 -17 -11 -3 -12 28 0 48 29 48 70 0 56 -33 84 -70 60 -12 -8 -16 -1 -20
43 -3 29 -8 48 -11 42z"/>
<path d="M1663 565 c0 -44 2 -61 4 -37 2 23 2 59 0 80 -2 20 -4 1 -4 -43z"/>
<path d="M930 600 c-30 -30 -21 -110 12 -110 9 0 9 3 0 12 -13 13 -16 56 -6
82 7 19 45 21 62 4 16 -16 15 -71 0 -87 -11 -10 -10 -11 5 -6 27 11 24 89 -5
109 -30 21 -44 20 -68 -4z"/>
<path d="M1082 604 c-33 -23 -28 -90 8 -111 22 -14 23 -14 7 0 -14 11 -17 26
-15 59 3 40 5 43 33 43 23 0 32 -6 39 -27 8 -23 6 -33 -12 -58 -24 -33 -15
-41 11 -12 25 28 22 87 -5 106 -28 20 -38 20 -66 0z"/>
<path d="M1227 602 c-25 -28 -22 -94 4 -110 21 -13 21 -13 5 9 -30 44 -16 99
27 99 10 0 15 5 12 10 -10 15 -30 12 -48 -8z"/>
<path d="M1375 610 c-3 -5 -1 -10 4 -10 6 0 11 5 11 10 0 6 -2 10 -4 10 -3 0
-8 -4 -11 -10z"/>
<path d="M1410 611 c0 -5 7 -11 15 -15 25 -9 20 -82 -7 -100 -12 -9 -18 -16
-12 -16 5 0 15 5 22 12 9 9 12 9 13 -3 1 -7 5 6 9 31 5 25 6 53 3 63 -5 18
-43 44 -43 28z"/>
<path d="M1732 597 c-17 -20 -20 -97 -4 -97 4 0 6 17 4 38 -3 27 1 44 13 55 9
10 12 17 7 17 -5 0 -14 -6 -20 -13z"/>
<path d="M1804 588 c14 -19 14 -23 -2 -34 -9 -8 -12 -14 -6 -14 23 0 36 27 24
49 -6 12 -15 21 -21 21 -6 0 -3 -10 5 -22z"/>
<path d="M1748 543 c6 -2 18 -2 25 0 6 3 1 5 -13 5 -14 0 -19 -2 -12 -5z"/>
<path d="M1356 524 c-8 -22 -8 -22 17 -35 20 -11 21 -11 8 4 -7 9 -11 24 -7
32 3 8 1 15 -3 15 -5 0 -12 -7 -15 -16z"/>
<path d="M1785 490 c-19 -8 -19 -9 2 -9 12 -1 25 4 28 9 7 12 -2 12 -30 0z"/>
</g>
</svg>
